<mxfile host="app.diagrams.net" agent="Mozilla/5.0 (Windows NT 10.0; Win64; x64) AppleWebKit/537.36 (KHTML, like Gecko) Chrome/140.0.0.0 Safari/537.36" version="28.2.5">
  <diagram name="Page-1" id="-BkA38cEWmfe3WUxlf_L">
    <mxGraphModel dx="1307" dy="708" grid="1" gridSize="10" guides="1" tooltips="1" connect="1" arrows="1" fold="1" page="1" pageScale="1" pageWidth="1169" pageHeight="827" math="0" shadow="0">
      <root>
        <mxCell id="0" />
        <mxCell id="1" parent="0" />
        <mxCell id="z0Z9Q-BWpyTF2NEFeLIu-11" value="VictoriaMetrics&lt;div&gt;(TSDB)&lt;/div&gt;" style="strokeWidth=2;html=1;shape=mxgraph.flowchart.database;whiteSpace=wrap;labelPosition=center;verticalLabelPosition=bottom;align=center;verticalAlign=top;" vertex="1" parent="1">
          <mxGeometry x="480" y="510" width="60" height="60" as="geometry" />
        </mxCell>
        <mxCell id="z0Z9Q-BWpyTF2NEFeLIu-51" style="rounded=0;orthogonalLoop=1;jettySize=auto;html=1;strokeWidth=3;" edge="1" parent="1" source="z0Z9Q-BWpyTF2NEFeLIu-12" target="z0Z9Q-BWpyTF2NEFeLIu-21">
          <mxGeometry relative="1" as="geometry" />
        </mxCell>
        <mxCell id="z0Z9Q-BWpyTF2NEFeLIu-59" value="LOGS" style="edgeLabel;html=1;align=center;verticalAlign=middle;resizable=0;points=[];" vertex="1" connectable="0" parent="z0Z9Q-BWpyTF2NEFeLIu-51">
          <mxGeometry x="-0.023" y="-2" relative="1" as="geometry">
            <mxPoint as="offset" />
          </mxGeometry>
        </mxCell>
        <mxCell id="z0Z9Q-BWpyTF2NEFeLIu-12" value="MetricsHub&lt;div&gt;(Metrics, Logs...)&lt;div&gt;&lt;br&gt;&lt;/div&gt;&lt;/div&gt;" style="sketch=0;outlineConnect=0;fontColor=#232F3E;gradientColor=none;fillColor=#000000;strokeColor=none;dashed=0;verticalLabelPosition=bottom;verticalAlign=top;align=center;html=1;fontSize=12;fontStyle=0;aspect=fixed;shape=mxgraph.aws4.application_discovery_service_aws_agentless_collector;" vertex="1" parent="1">
          <mxGeometry x="190" y="560" width="50" height="50" as="geometry" />
        </mxCell>
        <mxCell id="z0Z9Q-BWpyTF2NEFeLIu-13" style="rounded=0;orthogonalLoop=1;jettySize=auto;html=1;entryX=0;entryY=0.5;entryDx=0;entryDy=0;entryPerimeter=0;strokeColor=#0000FF;dashed=1;" edge="1" parent="1" source="z0Z9Q-BWpyTF2NEFeLIu-12" target="z0Z9Q-BWpyTF2NEFeLIu-11">
          <mxGeometry relative="1" as="geometry" />
        </mxCell>
        <mxCell id="z0Z9Q-BWpyTF2NEFeLIu-17" value="Grafana" style="sketch=0;pointerEvents=1;shadow=0;dashed=0;html=1;strokeColor=none;fillColor=#434445;aspect=fixed;labelPosition=center;verticalLabelPosition=bottom;verticalAlign=top;align=center;outlineConnect=0;shape=mxgraph.vvd.nsx_dashboard;" vertex="1" parent="1">
          <mxGeometry x="630" y="426.75" width="50" height="46.5" as="geometry" />
        </mxCell>
        <mxCell id="z0Z9Q-BWpyTF2NEFeLIu-18" style="rounded=0;orthogonalLoop=1;jettySize=auto;html=1;entryX=1;entryY=0.5;entryDx=0;entryDy=0;entryPerimeter=0;" edge="1" parent="1" source="z0Z9Q-BWpyTF2NEFeLIu-17" target="z0Z9Q-BWpyTF2NEFeLIu-11">
          <mxGeometry relative="1" as="geometry" />
        </mxCell>
        <mxCell id="z0Z9Q-BWpyTF2NEFeLIu-19" value="Kafka" style="sketch=0;outlineConnect=0;fontColor=#232F3E;gradientColor=none;fillColor=#232F3D;strokeColor=none;dashed=0;verticalLabelPosition=bottom;verticalAlign=top;align=center;html=1;fontSize=12;fontStyle=0;aspect=fixed;pointerEvents=1;shape=mxgraph.aws4.data_stream;" vertex="1" parent="1">
          <mxGeometry x="40" y="442" width="78" height="78" as="geometry" />
        </mxCell>
        <mxCell id="z0Z9Q-BWpyTF2NEFeLIu-46" style="rounded=0;orthogonalLoop=1;jettySize=auto;html=1;startArrow=classic;startFill=1;" edge="1" parent="1" source="z0Z9Q-BWpyTF2NEFeLIu-21" target="z0Z9Q-BWpyTF2NEFeLIu-25">
          <mxGeometry relative="1" as="geometry" />
        </mxCell>
        <mxCell id="z0Z9Q-BWpyTF2NEFeLIu-21" value="Coraline&lt;div&gt;(Streamsets)&lt;/div&gt;" style="points=[];aspect=fixed;html=1;align=left;shadow=0;dashed=0;fillColor=#000000;strokeColor=none;shape=mxgraph.alibaba_cloud.mps_apsaravideo_media_processing;labelPosition=right;verticalLabelPosition=middle;verticalAlign=middle;" vertex="1" parent="1">
          <mxGeometry x="220" y="260" width="60" height="70" as="geometry" />
        </mxCell>
        <mxCell id="z0Z9Q-BWpyTF2NEFeLIu-25" value="ELK" style="shape=datastore;whiteSpace=wrap;html=1;labelPosition=center;verticalLabelPosition=top;align=center;verticalAlign=bottom;" vertex="1" parent="1">
          <mxGeometry x="40" y="180" width="60" height="60" as="geometry" />
        </mxCell>
        <mxCell id="z0Z9Q-BWpyTF2NEFeLIu-61" style="rounded=0;orthogonalLoop=1;jettySize=auto;html=1;exitX=0.5;exitY=1;exitDx=0;exitDy=0;exitPerimeter=0;" edge="1" parent="1" source="z0Z9Q-BWpyTF2NEFeLIu-40" target="z0Z9Q-BWpyTF2NEFeLIu-17">
          <mxGeometry relative="1" as="geometry" />
        </mxCell>
        <mxCell id="z0Z9Q-BWpyTF2NEFeLIu-40" value="Algorilla&lt;div&gt;(events view)&lt;/div&gt;" style="sketch=0;pointerEvents=1;shadow=0;dashed=0;html=1;strokeColor=none;labelPosition=center;verticalLabelPosition=top;verticalAlign=bottom;align=center;fillColor=#505050;shape=mxgraph.mscae.oms.dashboard" vertex="1" parent="1">
          <mxGeometry x="630" y="190" width="50" height="40" as="geometry" />
        </mxCell>
        <mxCell id="z0Z9Q-BWpyTF2NEFeLIu-49" style="rounded=0;orthogonalLoop=1;jettySize=auto;html=1;dashed=1;endArrow=none;endFill=0;" edge="1" parent="1" source="z0Z9Q-BWpyTF2NEFeLIu-41" target="z0Z9Q-BWpyTF2NEFeLIu-19">
          <mxGeometry relative="1" as="geometry" />
        </mxCell>
        <mxCell id="z0Z9Q-BWpyTF2NEFeLIu-41" value="Zookeeper" style="sketch=0;pointerEvents=1;shadow=0;dashed=0;html=1;strokeColor=none;fillColor=#505050;labelPosition=center;verticalLabelPosition=top;verticalAlign=bottom;outlineConnect=0;align=center;shape=mxgraph.office.communications.watcher_node;" vertex="1" parent="1">
          <mxGeometry x="44" y="330" width="52" height="56" as="geometry" />
        </mxCell>
        <mxCell id="z0Z9Q-BWpyTF2NEFeLIu-43" value="Dictionnaries" style="sketch=0;outlineConnect=0;fontColor=#232F3E;gradientColor=none;strokeColor=#232F3E;fillColor=#ffffff;dashed=0;verticalLabelPosition=bottom;verticalAlign=top;align=center;html=1;fontSize=12;fontStyle=0;aspect=fixed;shape=mxgraph.aws4.resourceIcon;resIcon=mxgraph.aws4.rule_2;" vertex="1" parent="1">
          <mxGeometry x="410" y="220" width="60" height="60" as="geometry" />
        </mxCell>
        <mxCell id="z0Z9Q-BWpyTF2NEFeLIu-44" style="rounded=0;orthogonalLoop=1;jettySize=auto;html=1;entryX=-0.008;entryY=0.827;entryDx=0;entryDy=0;entryPerimeter=0;startArrow=classic;startFill=1;strokeWidth=3;" edge="1" parent="1" source="z0Z9Q-BWpyTF2NEFeLIu-43" target="z0Z9Q-BWpyTF2NEFeLIu-40">
          <mxGeometry relative="1" as="geometry" />
        </mxCell>
        <mxCell id="z0Z9Q-BWpyTF2NEFeLIu-45" style="rounded=0;orthogonalLoop=1;jettySize=auto;html=1;startArrow=classic;startFill=1;entryX=0.834;entryY=0.297;entryDx=0;entryDy=0;entryPerimeter=0;strokeWidth=3;" edge="1" parent="1" source="z0Z9Q-BWpyTF2NEFeLIu-43" target="z0Z9Q-BWpyTF2NEFeLIu-21">
          <mxGeometry relative="1" as="geometry">
            <mxPoint x="530" y="414" as="sourcePoint" />
            <mxPoint x="400" y="460" as="targetPoint" />
          </mxGeometry>
        </mxCell>
        <mxCell id="z0Z9Q-BWpyTF2NEFeLIu-47" style="rounded=0;orthogonalLoop=1;jettySize=auto;html=1;entryX=0;entryY=0.5;entryDx=0;entryDy=0;entryPerimeter=0;" edge="1" parent="1" source="z0Z9Q-BWpyTF2NEFeLIu-25" target="z0Z9Q-BWpyTF2NEFeLIu-40">
          <mxGeometry relative="1" as="geometry" />
        </mxCell>
        <mxCell id="z0Z9Q-BWpyTF2NEFeLIu-48" style="rounded=0;orthogonalLoop=1;jettySize=auto;html=1;entryX=0.024;entryY=0.554;entryDx=0;entryDy=0;entryPerimeter=0;startArrow=classic;startFill=1;" edge="1" parent="1" source="z0Z9Q-BWpyTF2NEFeLIu-19" target="z0Z9Q-BWpyTF2NEFeLIu-21">
          <mxGeometry relative="1" as="geometry" />
        </mxCell>
        <mxCell id="z0Z9Q-BWpyTF2NEFeLIu-50" style="rounded=0;orthogonalLoop=1;jettySize=auto;html=1;dashed=1;endArrow=none;endFill=0;entryX=0.243;entryY=0.334;entryDx=0;entryDy=0;entryPerimeter=0;" edge="1" parent="1" source="z0Z9Q-BWpyTF2NEFeLIu-41" target="z0Z9Q-BWpyTF2NEFeLIu-21">
          <mxGeometry relative="1" as="geometry">
            <mxPoint x="663" y="240" as="sourcePoint" />
            <mxPoint x="650" y="330" as="targetPoint" />
          </mxGeometry>
        </mxCell>
        <mxCell id="z0Z9Q-BWpyTF2NEFeLIu-52" value="Alertmanager" style="sketch=0;outlineConnect=0;fontColor=#232F3E;gradientColor=none;fillColor=#232F3D;strokeColor=none;dashed=0;verticalLabelPosition=bottom;verticalAlign=top;align=center;html=1;fontSize=12;fontStyle=0;aspect=fixed;pointerEvents=1;shape=mxgraph.aws4.alert;labelPosition=center;" vertex="1" parent="1">
          <mxGeometry x="370" y="400" width="70" height="60" as="geometry" />
        </mxCell>
        <mxCell id="z0Z9Q-BWpyTF2NEFeLIu-53" style="rounded=0;orthogonalLoop=1;jettySize=auto;html=1;startArrow=classic;startFill=1;endArrow=none;endFill=0;entryX=0.5;entryY=0;entryDx=0;entryDy=0;entryPerimeter=0;" edge="1" parent="1" source="z0Z9Q-BWpyTF2NEFeLIu-52" target="z0Z9Q-BWpyTF2NEFeLIu-11">
          <mxGeometry relative="1" as="geometry">
            <mxPoint x="470" y="530" as="targetPoint" />
          </mxGeometry>
        </mxCell>
        <mxCell id="z0Z9Q-BWpyTF2NEFeLIu-54" style="rounded=0;orthogonalLoop=1;jettySize=auto;html=1;entryX=0.788;entryY=0.829;entryDx=0;entryDy=0;entryPerimeter=0;strokeWidth=3;" edge="1" parent="1" source="z0Z9Q-BWpyTF2NEFeLIu-52" target="z0Z9Q-BWpyTF2NEFeLIu-21">
          <mxGeometry relative="1" as="geometry" />
        </mxCell>
        <mxCell id="z0Z9Q-BWpyTF2NEFeLIu-60" value="Alerts" style="edgeLabel;html=1;align=center;verticalAlign=middle;resizable=0;points=[];" vertex="1" connectable="0" parent="z0Z9Q-BWpyTF2NEFeLIu-54">
          <mxGeometry x="-0.2636" y="-3" relative="1" as="geometry">
            <mxPoint x="-18" y="-14" as="offset" />
          </mxGeometry>
        </mxCell>
        <mxCell id="z0Z9Q-BWpyTF2NEFeLIu-55" style="rounded=0;orthogonalLoop=1;jettySize=auto;html=1;entryX=0.113;entryY=0.002;entryDx=0;entryDy=0;entryPerimeter=0;edgeStyle=elbowEdgeStyle;elbow=vertical;dashed=1;dashPattern=8 8;strokeColor=#0000FF;" edge="1" parent="1" source="z0Z9Q-BWpyTF2NEFeLIu-19" target="z0Z9Q-BWpyTF2NEFeLIu-11">
          <mxGeometry relative="1" as="geometry" />
        </mxCell>
        <mxCell id="z0Z9Q-BWpyTF2NEFeLIu-56" style="rounded=0;orthogonalLoop=1;jettySize=auto;html=1;edgeStyle=elbowEdgeStyle;elbow=vertical;dashed=1;dashPattern=8 8;strokeColor=#0000FF;" edge="1" parent="1" source="z0Z9Q-BWpyTF2NEFeLIu-41" target="z0Z9Q-BWpyTF2NEFeLIu-11">
          <mxGeometry relative="1" as="geometry">
            <mxPoint x="940" y="280" as="sourcePoint" />
            <mxPoint x="1318" y="416" as="targetPoint" />
            <Array as="points">
              <mxPoint x="280" y="390" />
            </Array>
          </mxGeometry>
        </mxCell>
        <mxCell id="z0Z9Q-BWpyTF2NEFeLIu-57" style="rounded=0;orthogonalLoop=1;jettySize=auto;html=1;entryX=0.833;entryY=0;entryDx=0;entryDy=0;entryPerimeter=0;edgeStyle=elbowEdgeStyle;elbow=vertical;dashed=1;dashPattern=8 8;exitX=1.033;exitY=0.827;exitDx=0;exitDy=0;exitPerimeter=0;strokeColor=#0000FF;" edge="1" parent="1" source="z0Z9Q-BWpyTF2NEFeLIu-25" target="z0Z9Q-BWpyTF2NEFeLIu-11">
          <mxGeometry relative="1" as="geometry">
            <mxPoint x="330" y="450" as="sourcePoint" />
            <mxPoint x="698" y="569" as="targetPoint" />
          </mxGeometry>
        </mxCell>
        <mxCell id="z0Z9Q-BWpyTF2NEFeLIu-58" style="rounded=0;orthogonalLoop=1;jettySize=auto;html=1;entryX=0.335;entryY=-0.03;entryDx=0;entryDy=0;entryPerimeter=0;edgeStyle=elbowEdgeStyle;elbow=vertical;dashed=1;dashPattern=8 8;strokeColor=#0000FF;" edge="1" parent="1" source="z0Z9Q-BWpyTF2NEFeLIu-43" target="z0Z9Q-BWpyTF2NEFeLIu-11">
          <mxGeometry relative="1" as="geometry">
            <mxPoint x="420" y="310" as="sourcePoint" />
            <mxPoint x="648" y="580" as="targetPoint" />
          </mxGeometry>
        </mxCell>
      </root>
    </mxGraphModel>
  </diagram>
</mxfile>
